# xmcd CD database file
#
# Track frame offsets:
#	150
#	15948
#	31346
#	54734
#	74844
#	92683
#	108042
#	119755
#	140663
#	160069
#
# Disc length: 2510 seconds
#
# Revision: 1
# Processed by: cddbd v1.5.1PL0 Copyright (c) Steve Scherf et al.
# Submitted via: CDex 1.51
#
DISCID=8609cc0a
DTITLE=AC/DC - Highway to Hell
DYEAR=1900
DGENRE=
TTITLE0=Highway to Hell
TTITLE1=Girls Got Rhythm
TTITLE2=Walk All over You
TTITLE3=Touch Too Much
TTITLE4=Beating Around the Bush
TTITLE5=Shot Down in Flames
TTITLE6=Get It Hot
TTITLE7=If You Want Blood (You've Got It)
TTITLE8=Love Hungry Man
TTITLE9=Night Prowler
EXTD=
EXTT0=
EXTT1=
EXTT2=
EXTT3=
EXTT4=
EXTT5=
EXTT6=
EXTT7=
EXTT8=
EXTT9=
PLAYORDER=
